<?xml version="1.0" encoding="utf-8"?>
<!-- Generator: Adobe Illustrator 27.5.0, SVG Export Plug-In . SVG Version: 6.00 Build 0)  -->
<svg version="1.1" xmlns="http://www.w3.org/2000/svg" xmlns:xlink="http://www.w3.org/1999/xlink" x="0px" y="0px"
	 viewBox="0 0 500 500.001" style="enable-background:new 0 0 500 500.001;" xml:space="preserve">
<g id="BACKGROUND">
	<rect style="fill:#FFFFFF;" width="500" height="500"/>
</g>
<g id="OBJECTS">
	<g>
		<g>
			<g>
				<path style="fill:#FFFFFF;" d="M326.667,254.803c10.839-10.838,10.839-28.41,0.001-39.248c-10.838-10.838-28.411-10.839-39.25,0
					l-27.8,27.8l39.262,39.235L326.667,254.803z"/>
				<g>
					<path style="fill:#D6BBEA;" d="M305.4,207.48l-40.826,40.827l0.707,0.706l41.584-41.584
						C306.377,207.434,305.889,207.451,305.4,207.48z"/>
					<path style="fill:#D6BBEA;" d="M315.566,208.77l-45.263,45.264l0.708,0.707l45.608-45.609
						C316.271,209.003,315.92,208.883,315.566,208.77z"/>
					<path style="fill:#D6BBEA;" d="M323.187,212.607l-47.153,47.152l0.708,0.707l47.254-47.254
						C323.729,213.006,323.459,212.802,323.187,212.607z"/>
					<path style="fill:#D6BBEA;" d="M329.016,218.234l-47.252,47.251l0.707,0.707l47.15-47.149
						C329.425,218.77,329.222,218.501,329.016,218.234z"/>
					<path style="fill:#D6BBEA;" d="M333.094,225.61l-45.601,45.601l0.708,0.707l45.254-45.254
						C333.342,226.311,333.223,225.959,333.094,225.61z"/>
					<path style="fill:#D6BBEA;" d="M334.74,236.832c0.03-0.487,0.047-0.977,0.051-1.465l-41.568,41.569l0.707,0.706L334.74,236.832
						z"/>
				</g>
				<path style="fill:#7B46A5;" d="M335.023,207.197c-7.518-7.516-17.367-11.27-27.225-11.27c-9.856,0-19.707,3.755-27.23,11.278
					l-28.552,28.553l7.603,7.599l27.8-27.8c5.417-5.417,12.516-8.133,19.623-8.125c7.1,0,14.197,2.701,19.621,8.125
					c10.84,10.84,10.84,28.404,0,39.244l-27.787,27.787l7.612,7.607l28.534-28.534C350.063,246.619,350.063,222.238,335.023,207.197
					z"/>
			</g>
			<g>
				<path style="fill:#FFFFFF;" d="M257.982,339.453l-84.649-84.65c-10.839-10.838-10.839-28.41-0.001-39.248l0,0
					c10.838-10.838,28.411-10.839,39.25,0l84.649,84.65L257.982,339.453z"/>
				<g>
					<path style="fill:#D6BBEA;" d="M289.704,303.293c0.195-0.195,0.195-0.512,0-0.707l-95.105-95.105
						c-0.487-0.029-0.976-0.047-1.464-0.051l95.862,95.863C289.192,303.488,289.509,303.488,289.704,303.293z"/>
					<path style="fill:#D6BBEA;" d="M283.976,309.022c0.195-0.195,0.195-0.512,0-0.707l-99.543-99.545
						c-0.353,0.113-0.703,0.233-1.053,0.361l99.889,99.891C283.464,309.217,283.78,309.217,283.976,309.022z"/>
					<path style="fill:#D6BBEA;" d="M278.248,314.749c0.196-0.196,0.195-0.512,0-0.707L176.813,212.607
						c-0.272,0.195-0.542,0.399-0.809,0.605l101.536,101.537C277.736,314.944,278.053,314.944,278.248,314.749z"/>
					<path style="fill:#D6BBEA;" d="M272.521,320.477c0.195-0.195,0.195-0.512,0-0.707L170.984,218.234
						c-0.206,0.267-0.409,0.535-0.605,0.809l101.435,101.434C272.009,320.672,272.325,320.672,272.521,320.477z"/>
					<path style="fill:#D6BBEA;" d="M266.792,326.205c0.195-0.195,0.195-0.512,0-0.707l-99.886-99.888
						c-0.129,0.349-0.248,0.7-0.361,1.054l99.54,99.541C266.28,326.4,266.597,326.4,266.792,326.205z"/>
					<path style="fill:#D6BBEA;" d="M261.065,331.932c0.195-0.195,0.195-0.512,0-0.707l-95.857-95.857
						c0.004,0.488,0.021,0.978,0.051,1.465l95.1,95.1C260.554,332.127,260.87,332.127,261.065,331.932z"/>
				</g>
				<path style="fill:#0F1A47;" d="M257.536,346.611c-2.1,2.1-5.508,2.1-7.607,0l-84.952-84.951
					c-15.04-15.041-15.04-39.422,0-54.463c7.517-7.516,17.367-11.27,27.225-11.27c9.857,0,19.707,3.755,27.23,11.278l84.95,84.951
					c2.101,2.101,2.107,5.502,0.008,7.602c-2.101,2.101-5.509,2.101-7.609,0l-84.2-84.201c-5.417-5.417-12.517-8.133-19.623-8.125
					c-7.1,0-14.198,2.701-19.622,8.125c-10.84,10.84-10.84,28.404,0,39.244l84.201,84.201
					C259.637,341.103,259.637,344.511,257.536,346.611z"/>
			</g>
		</g>
		<g>
			
				<text transform="matrix(1 0 0 1 211.1995 194.1492)" style="fill:#7B46A5; font-family:'Poppins-Bold'; font-size:14px; letter-spacing:2;">Library</text>
			<g>
				<text transform="matrix(1 0 0 1 178.9014 174.8018)" style="fill:#D6BBEA; font-family:'Poppins-Black'; font-size:26.8394px;">Book</text>
				
					<text transform="matrix(1 0 0 1 261.8648 174.8018)" style="fill:#7B46A5; font-family:'Poppins-Regular'; font-size:26.8394px; letter-spacing:-1;">Love</text>
			</g>
		</g>
	</g>
</g>
</svg>
